HIERARCHY
ROOT Hips
{
  OFFSET 0 0.240689 0
  CHANNELS 6 Xposition Yposition Zposition Zrotation Xrotation Yrotation
  JOINT Bip01_Spine0
  {
    OFFSET 0 -24.7459 49.7988
    CHANNELS 6 Xposition Yposition Zposition Zrotation Xrotation Yrotation
    JOINT Bip01_Pelvis
    {
      OFFSET 0 0 0
      CHANNELS 6 Xposition Yposition Zposition Zrotation Xrotation Yrotation
      JOINT Bip01_Spine0_Tail
      {
        OFFSET -6.47486 -3.86022 0
        CHANNELS 6 Xposition Yposition Zposition Zrotation Xrotation Yrotation
        JOINT Bip01_Spine0_Tail1
        {
          OFFSET 10.3837 -0.00825882 0
          CHANNELS 6 Xposition Yposition Zposition Zrotation Xrotation Yrotation
          JOINT Bip01_Spine0_Tail2
          {
            OFFSET 10.3837 -0.00826263 0
            CHANNELS 6 Xposition Yposition Zposition Zrotation Xrotation Yrotation
            JOINT Bip01_Spine0_Tail3
            {
              OFFSET 10.3837 -0.00825882 0
              CHANNELS 6 Xposition Yposition Zposition Zrotation Xrotation Yrotation
              JOINT Bip01_Spine0_Tail4
              {
                OFFSET 10.3837 -0.00826263 0
                CHANNELS 6 Xposition Yposition Zposition Zrotation Xrotation Yrotation
                End Site
                {
                  OFFSET 0 0 0
                }
              }
            }
          }
        }
      }
      JOINT Bip01_R_Thigh
      {
        OFFSET 0 -1.52588e-005 -8.75617
        CHANNELS 6 Xposition Yposition Zposition Zrotation Xrotation Yrotation
        JOINT Bip01_R_Calf
        {
          OFFSET 19.7638 0 0
          CHANNELS 6 Xposition Yposition Zposition Zrotation Xrotation Yrotation
          JOINT Bip01_R_Foot
          {
            OFFSET 18.6534 0 0
            CHANNELS 6 Xposition Yposition Zposition Zrotation Xrotation Yrotation
            JOINT Bip01_R_Toe0
            {
              OFFSET 5.09145 13.9567 0
              CHANNELS 6 Xposition Yposition Zposition Zrotation Xrotation Yrotation
              JOINT Bip01_R_Toe01
              {
                OFFSET 4.28803 0 0
                CHANNELS 6 Xposition Yposition Zposition Zrotation Xrotation Yrotation
                JOINT Bip01_R_Toe02
                {
                  OFFSET 3.85801 0 0
                  CHANNELS 6 Xposition Yposition Zposition Zrotation Xrotation Yrotation
                  End Site
                  {
                    OFFSET 0 0 0
                  }
                }
              }
            }
          }
        }
      }
      JOINT Bip01_L_Thigh
      {
        OFFSET 0 1.52588e-005 8.75617
        CHANNELS 6 Xposition Yposition Zposition Zrotation Xrotation Yrotation
        JOINT Bip01_L_Calf
        {
          OFFSET 19.7638 0 0
          CHANNELS 6 Xposition Yposition Zposition Zrotation Xrotation Yrotation
          JOINT Bip01_L_Foot
          {
            OFFSET 18.6534 0 0
            CHANNELS 6 Xposition Yposition Zposition Zrotation Xrotation Yrotation
            JOINT Bip01_L_Toe0
            {
              OFFSET 5.09144 13.9567 0
              CHANNELS 6 Xposition Yposition Zposition Zrotation Xrotation Yrotation
              JOINT Bip01_L_Toe01
              {
                OFFSET 4.28802 0 0
                CHANNELS 6 Xposition Yposition Zposition Zrotation Xrotation Yrotation
                JOINT Bip01_L_Toe02
                {
                  OFFSET 3.85801 0 0
                  CHANNELS 6 Xposition Yposition Zposition Zrotation Xrotation Yrotation
                  End Site
                  {
                    OFFSET 0 0 0
                  }
                }
              }
            }
          }
        }
      }
      JOINT Bip01_Spine
      {
        OFFSET 9.14835 -0.00640869 -1.1e-005
        CHANNELS 6 Xposition Yposition Zposition Zrotation Xrotation Yrotation
        JOINT Bip01_Spine1
        {
          OFFSET 8.04366 -0.00638199 0
          CHANNELS 6 Xposition Yposition Zposition Zrotation Xrotation Yrotation
          JOINT Bip01_Spine2
          {
            OFFSET 8.04367 -0.00639343 0
            CHANNELS 6 Xposition Yposition Zposition Zrotation Xrotation Yrotation
            JOINT Bip01_Spine3
            {
              OFFSET 8.04304 -0.00831222 0
              CHANNELS 6 Xposition Yposition Zposition Zrotation Xrotation Yrotation
              JOINT Bip01_Neck
              {
                OFFSET 10.6685 1.06813 0
                CHANNELS 6 Xposition Yposition Zposition Zrotation Xrotation Yrotation
                JOINT Bip01_R_Clavicle
                {
                  OFFSET -3.21661 -4.89635 -9.04802
                  CHANNELS 6 Xposition Yposition Zposition Zrotation Xrotation Yrotation
                  JOINT Bip01_R_UpperArm
                  {
                    OFFSET 19.0492 0 0
                    CHANNELS 6 Xposition Yposition Zposition Zrotation Xrotation Yrotation
                    JOINT Bip01_R_Forearm
                    {
                      OFFSET 10.3706 0 0
                      CHANNELS 6 Xposition Yposition Zposition Zrotation Xrotation Yrotation
                      JOINT Bip01_R_Hand
                      {
                        OFFSET 22.8632 0 0
                        CHANNELS 6 Xposition Yposition Zposition Zrotation Xrotation Yrotation
                        JOINT Bip01_R_Finger0
                        {
                          OFFSET 6.48259 0.103651 0.504496
                          CHANNELS 6 Xposition Yposition Zposition Zrotation Xrotation Yrotation
                          JOINT Bip01_R_Finger01
                          {
                            OFFSET 3.66847 0 0
                            CHANNELS 6 Xposition Yposition Zposition Zrotation Xrotation Yrotation
                            End Site
                            {
                              OFFSET 0 0 0
                            }
                          }
                        }
                      }
                    }
                  }
                }
                JOINT Bip01_L_Clavicle
                {
                  OFFSET -3.21661 -4.89641 9.04797
                  CHANNELS 6 Xposition Yposition Zposition Zrotation Xrotation Yrotation
                  JOINT Bip01_L_UpperArm
                  {
                    OFFSET 19.0492 0 0
                    CHANNELS 6 Xposition Yposition Zposition Zrotation Xrotation Yrotation
                    JOINT Bip01_L_Forearm
                    {
                      OFFSET 10.3706 0 0
                      CHANNELS 6 Xposition Yposition Zposition Zrotation Xrotation Yrotation
                      JOINT Bip01_L_Hand
                      {
                        OFFSET 22.8631 0 0
                        CHANNELS 6 Xposition Yposition Zposition Zrotation Xrotation Yrotation
                        JOINT Bip01_L_Finger0
                        {
                          OFFSET 6.48257 0.103655 -0.504492
                          CHANNELS 6 Xposition Yposition Zposition Zrotation Xrotation Yrotation
                          JOINT Bip01_L_Finger01
                          {
                            OFFSET 3.66844 0 0
                            CHANNELS 6 Xposition Yposition Zposition Zrotation Xrotation Yrotation
                            End Site
                            {
                              OFFSET 0 0 0
                            }
                          }
                        }
                      }
                    }
                  }
                }
                JOINT Bip01_Neck1
                {
                  OFFSET 7.52459 -0.00656509 0
                  CHANNELS 6 Xposition Yposition Zposition Zrotation Xrotation Yrotation
                  JOINT Bip01_Neck2
                  {
                    OFFSET 8.4783 -0.00588226 0
                    CHANNELS 6 Xposition Yposition Zposition Zrotation Xrotation Yrotation
                    JOINT Bip01_Head
                    {
                      OFFSET 8.41606 0 0
                      CHANNELS 6 Xposition Yposition Zposition Zrotation Xrotation Yrotation
                      JOINT EyesBlue
                      {
                        OFFSET 0 0 0
                        CHANNELS 6 Xposition Yposition Zposition Zrotation Xrotation Yrotation
                        JOINT EyesBlue_2
                        {
                          OFFSET 0 -0.500007 0
                          CHANNELS 6 Xposition Yposition Zposition Zrotation Xrotation Yrotation
                          End Site
                          {
                            OFFSET 0 0 0
                          }
                        }
                      }
                      JOINT Bip01_Head2_Eyeleds
                      {
                        OFFSET 6.52751 7.61746 2.2e-005
                        CHANNELS 6 Xposition Yposition Zposition Zrotation Xrotation Yrotation
                        End Site
                        {
                          OFFSET 0 0 0
                        }
                      }
                      JOINT Bip01_Head_Muzzle
                      {
                        OFFSET 2.88628 13.9448 3.88994
                        CHANNELS 6 Xposition Yposition Zposition Zrotation Xrotation Yrotation
                        End Site
                        {
                          OFFSET 0 0 0
                        }
                      }
                      JOINT Bip01_Head1_Jaw
                      {
                        OFFSET 0.271065 1.32405 0
                        CHANNELS 6 Xposition Yposition Zposition Zrotation Xrotation Yrotation
                        JOINT _Bip01_Head11_TungeControler
                        {
                          OFFSET 4.61616 5.82872 0
                          CHANNELS 6 Xposition Yposition Zposition Zrotation Xrotation Yrotation
                          JOINT _Bip01_Ponytail3_tunge
                          {
                            OFFSET 5.17785 2.98805 0
                            CHANNELS 6 Xposition Yposition Zposition Zrotation Xrotation Yrotation
                            JOINT Bip01_Ponytail31
                            {
                              OFFSET 5.57569 0 0
                              CHANNELS 6 Xposition Yposition Zposition Zrotation Xrotation Yrotation
                              JOINT Bip01_Ponytail32
                              {
                                OFFSET 2.93165 0 0
                                CHANNELS 6 Xposition Yposition Zposition Zrotation Xrotation Yrotation
                                JOINT Bip01_Ponytail3Nub
                                {
                                  OFFSET 3.30155 0 0
                                  CHANNELS 6 Xposition Yposition Zposition Zrotation Xrotation Yrotation
                                  End Site
                                  {
                                    OFFSET 0 0 0
                                  }
                                }
                              }
                            }
                          }
                        }
                        JOINT Bip01_Head_JawNub
                        {
                          OFFSET 15.5776 -0.000389099 0
                          CHANNELS 6 Xposition Yposition Zposition Zrotation Xrotation Yrotation
                          End Site
                          {
                            OFFSET 0 0 0
                          }
                        }
                      }
                      JOINT Bip01_Ponytail2
                      {
                        OFFSET 9.40334 1.03973 -6.51764
                        CHANNELS 6 Xposition Yposition Zposition Zrotation Xrotation Yrotation
                        JOINT Bip01_Ponytail21
                        {
                          OFFSET 2.77018 -0.00640106 1.33514e-005
                          CHANNELS 6 Xposition Yposition Zposition Zrotation Xrotation Yrotation
                          End Site
                          {
                            OFFSET 0 0 0
                          }
                        }
                      }
                      JOINT Bip01_Ponytail1
                      {
                        OFFSET 9.40368 1.03969 6.51768
                        CHANNELS 6 Xposition Yposition Zposition Zrotation Xrotation Yrotation
                        JOINT Bip01_Ponytail11
                        {
                          OFFSET 2.77018 -0.00640487 0
                          CHANNELS 6 Xposition Yposition Zposition Zrotation Xrotation Yrotation
                          End Site
                          {
                            OFFSET 0 0 0
                          }
                        }
                      }
                    }
                  }
                }
              }
            }
          }
        }
      }
    }
  }
}
MOTION
Frames:	4
Frame Time:	0.0333333
0 0 -1e-006 -0 -90 -0 -0.262345 -24.7456 50.4636 90 -3.50835e-015 90 0 0 0 -90 -3.50835e-015 -90 -6.45928 -3.86079 0.44028 133.257 2.8418 -2.67083 10.3793 -0.007175 9.61586e-012 -29.7613 -1.9221e-005 7.79619e-005 10.3834 -0.008117 0.000128 0.500452 0.000105994 0.000106007 10.3851 -0.008007 8.40001e-005 13.1317 0.000238788 0.000189191 10.3846 -0.008113 0.000133 9.58599 0.000582731 0.000493101 1.13827e-005 -1.5e-005 -8.75617 -97.4894 -11.9751 173.961 19.7638 2e-006 -1e-006 -60.8857 8.28477e-005 0.000317616 18.6534 7e-006 -1.38556e-013 -27.4936 1.40185 7.55373 5.09143 13.9567 2.00985e-006 114.82 3.10051 1.66758 4.288 3e-006 -2.41585e-013 53.6716 8.43272 1.28952 3.85799 2.61569e-013 1e-006 -45 -1.76306e-005 -7.20547e-006 -1.53827e-005 7e-006 8.75617 -110.947 -4.43358 -179.209 19.7638 0 7.10543e-015 -63.6033 7.37825e-005 0.000316349 18.6534 -7.10543e-015 -3.55271e-015 -25.5003 1.14707 -5.71797 5.09143 13.9567 -1.15376e-007 115.001 0.00166305 5.00038 4.288 -1e-006 -3.19744e-014 51.474 -6.03003 0.263548 3.85799 3.35731e-013 -2e-006 -45 -5.4359e-006 -5.60893e-006 9.12717 -0.0064076 -0.622128 0.0455259 0.00290955 3.95345 8.04366 -0.006404 -1.75984e-011 -8.9421e-007 4.30013e-005 0.054077 8.04366 -0.006404 -1.73743e-011 -8.94212e-007 4.30012e-005 0.054077 8.04304 -0.008323 -2.22669e-011 -4.29872 4.89068e-005 0.054089 10.67 1.06806 0.000150874 0.692216 0.00134495 0.00132908 -4.30516 -3.9747 -9.04794 179.259 -85.4169 114.997 19.0491 -2.84217e-014 -3e-006 89.7464 8.41605 -103.464 10.3706 -1.77636e-014 -2.66454e-015 -58.5392 0.000167632 0.000573484 22.8631 -1e-006 1.26121e-013 -16.6196 -0.172687 2.44971 6.48255 0.103657 0.504496 -78.3091 -0.300411 -15.4962 3.66843 1e-006 -1.38556e-013 34.6071 -6.90115e-006 1.28858e-005 -4.30499 -3.97457 9.04783 179.262 85.4166 -114.998 19.0492 5.68434e-014 7e-006 88.6339 -8.31456 99.4942 10.3706 -7.10543e-015 8.88179e-016 -58.5388 8.48578e-005 0.000306951 22.8631 -1e-006 -4.08562e-014 -16.4581 -8.558 -2.45384 6.48255 0.103653 -0.504496 -75.9428 0.956398 15.472 3.66843 9.99999e-007 -2e-006 40.107 -6.3023e-006 3.54897e-006 7.52562 -0.006721 7.86396e-010 -4.48654 7.70526e-006 1.21858e-005 8.47685 -0.006454 6.01221e-010 15.6197 1.32565e-005 -5.1592e-005 8.41605 3e-006 2.93987e-013 -74.0216 0.196594 -0.0887133 -3e-006 1e-006 -3e-006 -23.1098 1.37701e-015 90 -1.42242e-006 -0.499985 -4.69322e-005 97.7323 90 -7.73231 0 0 0 -113.549 4.57764e-005 -180 2.8863 13.9448 3.88993 -22.9892 1.37021e-015 90 0 0 0 -85.3358 -7.01671e-015 -180 0 0 0 -120.289 -5.15648e-007 -1.91961e-005 0 0 0 133.74 -2.34467e-005 4.64842e-006 0 0 0 -0.16845 7.67779e-008 1.16011e-008 0 0 0 -22.6319 3.41182e-006 1.48889e-006 0 0 0 -26.1943 8.9348e-007 7.03592e-008 15.5776 -0.000396 -7.00001e-006 0 0 -0 9.40334 1.03972 -6.51764 -19.0867 17.2452 20.3009 2.77017 -0.006401 5.99165e-011 2.43506 9.21283e-006 -1.76901e-005 9.40368 1.03968 6.51767 -19.0868 -17.2452 -20.3008 2.77018 -0.006404 -2.20952e-010 2.43506 9.33253e-006 -1.77968e-005 
0 0 -1e-006 -0 -90 -0 -0.262345 -24.7495 50.4636 90.0001 -0.00048325 89.0897 0 0 0 -90 -3.50835e-015 -90 -6.45928 -3.86079 0.44028 132.809 2.86257 -2.64855 10.3793 -0.007175 1.63232e-011 -30.2089 -2.02632e-005 7.89442e-005 10.3834 -0.008117 0.000128 0.0550413 0.000105171 0.000106002 10.3851 -0.008007 8.40001e-005 12.6875 0.000236363 0.000186665 10.3846 -0.008113 0.000133 7.56393 0.000563881 0.000504488 1.1e-005 -1.5e-005 -8.75617 -97.158 -11.8972 173.847 19.7638 2e-006 -1e-006 -61.1229 8.15568e-005 0.000317981 18.6534 7e-006 -1.49214e-013 -28.8737 1.20917 7.60117 5.09143 13.9567 1.91316e-006 115.863 3.13032 1.61087 4.288 3e-006 -2.38032e-013 53.6716 8.43272 1.28952 3.85799 2.20712e-013 1e-006 -45 -1.65292e-005 -6.22853e-006 -1.5e-005 7e-006 8.75617 -110.58 -4.45069 -179.145 19.7638 -5.32907e-015 3.55271e-015 -63.9005 7.21656e-005 0.000316715 18.6534 -1.42109e-014 1.77636e-015 -26.6292 1.28354 -5.68718 5.09143 13.9567 -1.09114e-007 115.887 0.0157409 5.03053 4.288 -1e-006 -2.84217e-014 51.474 -6.03003 0.263548 3.85799 3.17968e-013 -2e-006 -45 -6.30634e-006 -6.45513e-006 9.12717 -0.006408 -0.622128 0.35951 0.0246049 3.95337 8.04366 -0.006404 -4.79831e-010 0.314725 0.00033896 0.0540749 8.04366 -0.006404 -6.00139e-010 0.314725 0.000339036 0.0540749 8.04304 -0.008323 -9.25251e-010 -3.98399 0.000349148 0.0540874 10.67 1.06806 0.000150933 0.732924 0.00134513 0.00132802 -4.308 -3.97166 -9.04794 179.216 -85.4173 114.994 19.0491 -3.37508e-014 -3e-006 89.9677 9.92893 -103.465 10.3706 1.77636e-015 9.76997e-015 -57.2215 0.000180761 0.000569586 22.8631 -1e-006 1.25233e-013 -16.7488 -0.0968487 2.50866 6.48255 0.103657 0.504496 -78.3091 -0.300412 -15.4962 3.66843 1e-006 -1.42109e-013 34.6071 -6.68667e-006 1.27614e-005 -4.30786 -3.97159 9.04783 179.224 85.4168 -115.001 19.0492 7.10543e-014 7e-006 88.7947 -9.83591 99.503 10.3706 -1.24345e-014 -4.44089e-015 -57.2222 9.18992e-005 0.000304884 22.8631 -1e-006 -4.08562e-014 -16.5904 -8.60336 -2.49236 6.48255 0.103653 -0.504496 -75.9428 0.956397 15.472 3.66843 9.99999e-007 -2e-006 40.107 -5.56811e-006 2.89008e-006 7.52562 -0.006721 3.2788e-010 -4.44815 1.04804e-005 1.2488e-005 8.47685 -0.006454 4.73926e-010 15.6581 1.33193e-005 -5.19096e-005 8.41605 3e-006 3.43725e-013 -75.3946 0.197622 -0.0863487 -3e-006 1e-006 -3e-006 -23.1098 1.37701e-015 90 -1.42242e-006 -0.499985 -4.69322e-005 97.7361 90 -7.7361 0 0 0 -113.549 4.57764e-005 -180 2.8863 13.9448 3.88993 -22.9892 1.37021e-015 90 0 0 0 -85.3358 -3.24611e-014 -180 0 0 0 -117.976 -1.24348e-006 -1.90394e-005 0 0 0 131.09 0.189363 -0.509939 0 0 0 -0.16845 8.83145e-008 1.11213e-008 0 0 0 -22.6319 3.73235e-006 1.42164e-006 0 0 0 -26.1943 9.35828e-007 -1.42324e-007 15.5776 -0.000396 -7.00001e-006 9.54166e-015 -1.98785e-016 7.95139e-016 9.40334 1.03972 -6.51764 -19.0867 17.2452 20.3009 2.77017 -0.006401 5.15286e-011 2.43506 9.21275e-006 -1.76933e-005 9.40368 1.03968 6.51767 -19.0868 -17.2452 -20.3008 2.77018 -0.006404 -2.12419e-010 2.43506 9.33417e-006 -1.77936e-005 
0 0 -1e-006 -0 -90 -0 -0.262345 -24.7597 50.4636 89.9997 0.000110744 88.0831 0 0 0 -90 -3.50835e-015 -90 -6.45928 -3.86079 0.44028 132.324 2.88487 -2.62425 10.3793 -0.007175 2.30529e-011 -30.6935 -2.12858e-005 7.9906e-005 10.3834 -0.008117 0.000128 -0.436249 0.000104271 0.00010583 10.3851 -0.008007 8.40001e-005 12.1963 0.000235365 0.000191361 10.3846 -0.008113 0.000133 5.56586 0.00054512 0.000514598 1.1e-005 -1.5e-005 -8.75617 -96.7847 -11.8137 173.724 19.7638 2e-006 -1e-006 -61.3483 8.03317e-005 0.00031833 18.6534 7e-006 -1.38556e-013 -30.4276 0.995601 7.6447 5.09143 13.9567 1.7809e-006 117.016 3.16206 1.54759 4.288 3e-006 -2.52243e-013 53.6716 8.43272 1.28952 3.85799 1.86518e-013 1e-006 -45 -1.5313e-005 -5.14647e-006 -1.5e-005 7e-006 8.75617 -110.169 -4.46911 -179.073 19.7638 -1.24345e-014 0 -64.1995 7.05414e-005 0.000317073 18.6534 0 1.06581e-014 -27.9021 1.43416 -5.6486 5.09143 13.9567 -1.00127e-007 116.866 0.0334035 5.06424 4.288 -1e-006 -3.19744e-014 51.474 -6.03003 0.263548 3.85799 2.43361e-013 -2e-006 -45 -7.26644e-006 -7.3912e-006 9.12717 -0.006408 -0.622128 0.699471 0.0480948 3.95315 8.04366 -0.006404 -9.2049e-010 0.655497 0.000658958 0.0540709 8.04366 -0.006404 -1.21936e-009 0.655497 0.000659376 0.0540709 8.04304 -0.008323 -1.91238e-009 -3.64322 0.000673517 0.0540838 10.67 1.06806 0.00015101 0.825869 0.0013461 0.00132693 -4.31446 -3.9647 -9.04794 179.133 -85.4177 115.003 19.0491 -3.73035e-014 -3e-006 90.2184 11.6292 -103.478 10.3706 1.77636e-015 -7.99361e-015 -55.7403 0.000195398 0.000564841 22.8631 -1e-006 1.32339e-013 -16.8854 -0.0142302 2.57639 6.48255 0.103657 0.504496 -78.3091 -0.300412 -15.4962 3.66843 1e-006 -1.3145e-013 34.6071 -6.43154e-006 1.26135e-005 -4.31428 -3.96464 9.04783 179.13 85.4168 -114.999 19.0492 7.99361e-014 7e-006 88.9792 -11.5458 99.5223 10.3706 -3.55271e-015 0 -55.7435 9.97451e-005 0.000302363 22.8631 -1e-006 -4.52971e-014 -16.731 -8.65374 -2.53775 6.48255 0.103653 -0.504496 -75.9428 0.956396 15.472 3.66843 1e-006 -2e-006 40.107 -4.73214e-006 2.14246e-006 7.52562 -0.006721 -2.99559e-010 -4.35796 1.42638e-005 1.2886e-005 8.47685 -0.006454 2.97126e-010 15.7483 1.40124e-005 -5.23668e-005 8.41605 3e-006 3.81473e-013 -77.0544 0.198428 -0.0838186 -3e-006 1e-006 -3e-006 -23.1098 1.37701e-015 90 -1.42242e-006 -0.499985 -4.69321e-005 97.7189 90 -7.71888 0 0 0 -113.549 4.57764e-005 -180 2.8863 13.9448 3.88993 -22.9892 1.37021e-015 90 0 0 0 -85.3358 -7.01671e-015 -180 0 0 0 -115.662 -1.98591e-006 -1.88128e-005 0 0 0 128.443 0.378708 -1.0199 0 0 0 -0.16845 1.07163e-007 1.13917e-008 0 0 0 -22.6319 4.26927e-006 1.44978e-006 0 0 0 -26.1943 9.88541e-007 -3.49536e-007 15.5776 -0.000396 -7.00001e-006 -6.36111e-015 -1.98785e-016 -3.97569e-016 9.40334 1.03972 -6.51764 -19.0867 17.2452 20.3009 2.77017 -0.006401 4.26823e-011 2.43506 9.21305e-006 -1.76966e-005 9.40368 1.03968 6.51767 -19.0868 -17.2452 -20.3008 2.77018 -0.006404 -2.0343e-010 2.43506 9.33572e-006 -1.77902e-005 
0 0 -1e-006 -0 -90 -0 -0.262346 -24.7709 50.4636 89.9997 0.000254829 87.3166 0 0 0 -90 -3.50835e-015 -90 -6.45928 -3.86079 0.44028 131.927 2.90293 -2.60424 10.3793 -0.007175 2.7927e-011 -31.0897 -2.1309e-005 8.08849e-005 10.3834 -0.008117 0.000128 -0.809979 0.000103631 0.00010301 10.3851 -0.008007 8.40001e-005 11.8221 0.000233381 0.000189295 10.3846 -0.008113 0.000133 3.38011 0.000524601 0.000525639 1.1e-005 -1.5e-005 -8.75617 -96.4987 -11.7514 173.631 19.7638 2e-006 -1e-006 -61.4971 7.95239e-005 0.000318562 18.6534 7e-006 -1.49214e-013 -31.6338 0.832691 7.6725 5.09143 13.9567 1.66391e-006 117.898 3.18547 1.49878 4.288 3e-006 -2.45137e-013 53.6716 8.43272 1.28952 3.85799 1.85629e-013 1e-006 -45 -1.43885e-005 -4.32173e-006 -1.5e-005 7e-006 8.75617 -109.857 -4.48277 -179.019 19.7638 -1.77636e-015 8.88179e-015 -64.4089 6.94063e-005 0.000317318 18.6534 -7.10543e-015 8.88179e-015 -28.8936 1.54772 -5.61579 5.09143 13.9567 -9.16685e-008 117.613 0.0479156 5.09041 4.288 -1e-006 -2.84217e-014 51.474 -6.03002 0.263548 3.85799 2.28262e-013 -2e-006 -45 -7.99078e-006 -8.09943e-006 9.12717 -0.006408 -0.622128 0.977398 0.0672979 3.95287 8.04366 -0.006404 -1.18868e-009 0.934114 0.000920127 0.0540668 8.04366 -0.006404 -1.6836e-009 0.934114 0.000921108 0.0540667 8.04304 -0.008323 -2.68867e-009 -3.36463 0.000937908 0.0540801 10.67 1.06806 0.000151083 0.933923 0.00134724 0.00132582 -4.32198 -3.95648 -9.04794 179.022 -85.4176 115.001 19.0491 -2.4869e-014 -3e-006 90.4141 12.9468 -103.494 10.3706 3.55271e-015 -8.88179e-016 -54.596 0.000206619 0.000560924 22.8631 -1e-006 1.3145e-013 -16.9855 0.0474419 2.62888 6.48255 0.103657 0.504496 -78.3091 -0.300412 -15.4962 3.66843 1e-006 -1.35003e-013 34.6071 -6.25796e-006 1.25344e-005 -4.32182 -3.95644 9.04783 179.019 85.4169 -114.997 19.0492 7.99361e-014 7e-006 89.123 -12.8704 99.5388 10.3706 -3.01981e-014 -1.77636e-015 -54.6018 0.000105756 0.000300276 22.8631 -1e-006 -3.28626e-014 -16.834 -8.6917 -2.57303 6.48255 0.103653 -0.504496 -75.9428 0.956395 15.472 3.66843 1e-006 -2e-006 40.107 -4.1491e-006 1.62144e-006 7.52562 -0.006721 -9.22151e-010 -4.24546 1.80569e-005 1.22633e-005 8.47685 -0.006454 1.17016e-010 15.8608 1.52483e-005 -5.28455e-005 8.41605 3e-006 3.92575e-013 -78.4332 0.197944 -0.0826487 -3e-006 1e-006 -3e-006 -23.1098 1.37701e-015 90 -1.42242e-006 -0.499985 -4.69324e-005 99.6734 90 -9.67336 0 0 0 -113.549 4.57764e-005 -180 2.8863 13.9448 3.88993 -22.9892 1.37021e-015 90 0 0 0 -85.3358 -7.01671e-015 -180 0 0 0 -113.349 -2.72267e-006 -1.85834e-005 0 0 0 125.8 0.567965 -1.52989 0 0 0 -0.16845 1.21747e-007 1.12458e-008 0 0 0 -22.6319 4.69391e-006 1.42507e-006 0 0 0 -26.1943 1.03021e-006 -5.63143e-007 15.5776 -0.000396 -7.00001e-006 3.18055e-015 0 3.97569e-016 9.40334 1.03972 -6.51764 -19.0867 17.2452 20.3009 2.77017 -0.006401 3.51115e-011 2.43506 9.21305e-006 -1.76995e-005 9.40368 1.03968 6.51767 -19.0868 -17.2452 -20.3008 2.77018 -0.006404 -1.959e-010 2.43506 9.33719e-006 -1.77873e-005 
